PathFileType	4	(X/Y/Z)	RBDS022\RBDS022runT35.trc
DataRate	CameraRate	NumFrames	NumMarkers	Units	OrigDataRate	OrigDataStartFrame	OrigNumFrames
150.000000	150.000000	4	33	mm	150.000000	0	4500
Frame#	Time	L.ASIS			L.Heel.Bottom			L.Heel.Lateral			L.Heel.Top			L.Iliac.Crest			L.MT1			L.MT5			L.PSIS			L.Shank.Bottom.Lateral			L.Shank.Bottom.Medial			L.Shank.Top.Lateral			L.Shank.Top.Medial			L.Thigh.Bottom.Lateral			L.Thigh.Bottom.Medial			L.Thigh.Top.Lateral			L.Thigh.Top.Medial			R.ASIS			R.ASY			R.Heel.Bottom			R.Heel.Lateral			R.Heel.Top			R.Iliac.Crest			R.MT1			R.MT5			R.PSIS			R.Shank.Bottom.Lateral			R.Shank.Bottom.Medial			R.Shank.Top.Lateral			R.Shank.Top.Medial			R.Thigh.Bottom.Lateral			R.Thigh.Bottom.Medial			R.Thigh.Top.Lateral			R.Thigh.Top.Medial			
		X1	Y1	Z1	X2	Y2	Z2	X3	Y3	Z3	X4	Y4	Z4	X5	Y5	Z5	X6	Y6	Z6	X7	Y7	Z7	X8	Y8	Z8	X9	Y9	Z9	X10	Y10	Z10	X11	Y11	Z11	X12	Y12	Z12	X13	Y13	Z13	X14	Y14	Z14	X15	Y15	Z15	X16	Y16	Z16	X17	Y17	Z17	X18	Y18	Z18	X19	Y19	Z19	X20	Y20	Z20	X21	Y21	Z21	X22	Y22	Z22	X23	Y23	Z23	X24	Y24	Z24	X25	Y25	Z25	X26	Y26	Z26	X27	Y27	Z27	X28	Y28	Z28	X29	Y29	Z29	X30	Y30	Z30	X31	Y31	Z31	X32	Y32	Z32	X33	Y33	Z33	

1	0	2227.375552773457	948.2722680730662	892.3243596022764	1588.016594561079	404.3241894893432	965.6081495308697	1609.929964500626	376.2538809046287	918.5491579800984	1633.967215798594	401.2355239439419	963.5537340179936	2167.066402283552	1043.285091835838	846.2719920365956	1629.73453697861	191.4834618140088	998.9679950283022	1606.982237595657	221.5587681911681	890.3852307603354	2057.671793220769	996.0346851377204	952.925865150416	1728.544811090396	375.4386936223531	895.3660694039958	1714.631259457539	414.2893490630286	933.1339824481993	1796.828626757287	415.3822863706264	880.6535379532622	1783.857438064105	453.6846579015971	916.2370160951098	2084.009084873189	581.0978412261287	853.4820240662829	2022.707083095509	600.7623755502643	888.2894526870896	2102.634920170086	685.6872593747859	828.4380920156884	2044.088798293371	704.2863443981413	862.057106447661	2201.511909339508	967.4297781597139	1124.889480358712	2452.240277283488	112.1526846120815	1038.54026580644	2287.223788831597	24.35900718574796	981.8529990271783	2305.054916778116	37.7004556092328	1035.235026890071	2284.971755247892	67.02166895680135	992.3476338434896	2136.678453576254	1041.669227716122	1162.437140154305	2490.501344872425	89.5876842386462	987.2692983549507	2456.769222450475	47.57494658732389	1088.274379613326	2048.361540674	996.3649222366366	1040.74919404454	2298.392461592496	164.3935849019923	1073.148874943846	2272.393122872487	174.8320685594861	1029.71451336933	2285.220832504737	244.2916555041878	1098.417076055778	2255.607153555387	250.0395338430707	1054.665649771706	2258.56069303126	599.8327049063992	1156.837060865684	2204.046100950261	578.9217785696022	1116.861905315753	2207.485250338259	695.6153512908362	1178.379847543486	2154.531535326733	674.434503194498	1141.624521875078	
2	0.006666666666666667	2227.847896387149	943.0014666133516	893.1172015897773	1597.675277891098	412.1261357244877	964.0115766253265	1618.970950326349	383.9165071170991	916.7530946685661	1643.443816956397	407.9490627660665	962.1787874587102	2166.595556975304	1035.73029635494	845.4077972394623	1635.051940225421	198.3836391881168	995.9978326056188	1612.904335349539	229.5549245893564	887.505155751521	2056.925154853775	988.4335509349094	951.5116370537758	1737.975753077147	379.6818646679045	893.5939623556133	1725.45907823967	418.6426594893818	931.5409312296013	1807.465795902098	417.1233802952559	879.0357299294902	1795.877376599773	455.5519001881714	914.8654629349589	2091.971366841849	573.6846816671963	852.4891058248409	2031.133754951881	591.5479465606572	888.7217855479755	2107.582195032029	678.8230562554763	828.0010667641394	2049.181418222461	695.7044100446655	862.6297721224025	2199.999164903389	963.0349808960498	1126.122433825133	2435.083264272435	105.443842620902	1033.695041388832	2266.184316203859	24.72631456245209	980.6320718062346	2284.93522255518	38.88108157272287	1033.400697824837	2266.285923043759	67.5596897500747	989.5153702781181	2133.613906239501	1035.860847503117	1161.853452121276	2472.009153214673	79.21353859805092	983.527979855913	2437.043180388259	44.07837273948407	1086.616133803824	2047.237705163739	989.4975649800506	1038.982684589756	2286.619192495155	162.0570843298805	1071.624796760623	2259.73872736104	174.1253342631832	1029.400120453898	2277.77956219766	241.9815174009721	1097.973628128104	2247.042393808782	249.5672436980478	1055.523447524207	2259.599872872009	595.9149751829942	1157.657509559128	2205.203941372617	574.6194257178327	1117.689969567672	2207.962120772895	691.3911629067378	1179.172700452234	2154.938001173173	669.7117369696576	1142.672795857351	
3	0.01333333333333333	2228.231669471423	937.7129778406585	893.9549998707347	1607.60177983066	419.4534442229367	962.3922967564895	1628.350042921673	391.1456270098417	914.936420844719	1653.198440817297	414.2531968789674	960.7875887733073	2166.27304584278	1028.149364999395	844.5790808020427	1640.906665462519	204.8459027588914	992.9591314868494	1619.393478773124	237.1175375299634	884.5674257208282	2056.139453358796	981.0402653302945	950.1716025748933	1747.733224492169	383.6400377100987	891.8124942628101	1736.570341104717	422.6934273368969	929.943158791968	1818.378347219354	418.6666171552858	877.4038287513052	1808.132613007838	457.1977253140841	913.4859207772573	2100.080655012609	566.4195164290948	851.4495087001128	2039.640154270895	582.4348983443067	888.9934606847434	2112.629456787633	672.0923181020282	827.5381772708195	2054.341321246439	687.2094923002953	863.1018402271402	2198.469426084212	958.6629074920716	1127.353808654265	2417.644755474694	99.0783170666501	1029.00034558324	2245.039743801326	25.14119058469685	979.4382255810324	2264.672813749319	40.09849327465613	1031.606173681249	2247.40494334663	68.13248860478015	986.7558382719878	2130.624524980004	1030.055583553629	1161.329999189638	2453.294555807473	69.36259672780676	979.9448755258685	2417.134125524532	40.84790694535778	1085.003883898924	2046.08883547975	982.8169933932368	1037.297964805718	2274.57320545258	159.9020579268694	1070.070547491598	2246.876780110103	173.5901321027202	1029.025016279562	2270.047811741816	239.8057402150403	1097.44471302079	2238.256985741669	249.2196357209991	1056.256060224624	2260.448459002293	592.0324277848056	1158.397586751938	2206.149602830679	570.3879808130905	1118.451152086648	2208.304109696929	687.2237816512771	1179.918219208102	2155.196710805938	665.0815747520702	1143.683725616121	
4	0.02	2228.438124339355	932.3961663149021	894.8708815984428	1618.014528397796	425.8813524113261	960.728184636631	1638.35352961396	397.557448379952	913.0801948574477	1663.463076603455	419.7865540010909	959.3638018263301	2166.219264057555	1020.529625478311	843.8172206255158	1647.769269511479	210.463309820882	989.7828209542927	1626.950747624598	243.8523065202593	881.5143190557262	2055.273969772873	974.035554581492	948.9783956533078	1758.105936637634	387.0653312708524	890.0104705176063	1748.213041404191	426.1790923487836	928.3357478996463	1829.816183993252	419.8454203059008	875.7457828565634	1820.834078971433	458.4361353938167	912.0917610093801	2108.486451817311	559.4432909636295	850.3219450814021	2048.319369201743	573.5152927400432	888.9620414178428	2117.876148979927	665.619496004338	827.0330086951993	2059.637840259413	678.8778345731096	863.3855568561373	2196.9067202717	954.3270888836129	1128.578318979257	2399.676835926933	93.35298641690588	1024.589920202266	2223.699237536317	25.62310553848175	978.292688261085	2244.141813725826	41.36525781111362	1029.883890096928	2228.15540479124	68.7487687601038	984.1303459038887	2127.775895177833	1024.264833950808	1160.922499369963	2434.168582540437	60.4871851973876	976.6585592295426	2396.881311630285	38.10932606773256	1083.477519497776	2044.887520965456	976.4864851793178	1035.775253689481	2262.004825593786	158.0686845990101	1068.459019670414	2233.617786919098	173.3552138675966	1028.5324377388	2261.756866057325	237.8624031619602	1096.751759052813	2229.047383895168	249.0836114399256	1056.746650501433	2260.92865756663	588.1953473566276	1158.978280527226	2206.682527662109	566.2702710449807	1119.080243862989	2208.384800282389	683.1469602815688	1180.569967465128	2155.167372624917	660.6116787446329	1144.619301236179	
